Coordinates
version=1
nRows=13
nColumns=40
inDegrees=yes

Units are S.I. units (second, meters, Newtons, ...)
Angles are in degrees.

endheader
time	pelvis_tilt	pelvis_list	pelvis_rotation	pelvis_tx	pelvis_ty	pelvis_tz	hip_flexion_r	hip_adduction_r	hip_rotation_r	knee_angle_r	knee_angle_r_beta	ankle_angle_r	subtalar_angle_r	mtp_angle_r	hip_flexion_l	hip_adduction_l	hip_rotation_l	knee_angle_l	knee_angle_l_beta	ankle_angle_l	subtalar_angle_l	mtp_angle_l	lumbar_extension	lumbar_bending	lumbar_rotation	arm_flex_r	arm_add_r	arm_rot_r	elbow_flex_r	pro_sup_r	wrist_flex_r	wrist_dev_r	arm_flex_l	arm_add_l	arm_rot_l	elbow_flex_l	pro_sup_l	wrist_flex_l	wrist_dev_l
     27.27000000	     -1.65294873	     -4.78292230	      4.88601401	      1.10696091	      0.92488450	      0.44996556	      1.59029848	     -2.04099579	    -13.70568346	     26.93209999	     26.93209999	     16.76110494	     -1.40971230	     -5.92428384	     23.75418042	     -6.44529917	     -0.65416384	     27.78516938	     27.78516938	      8.60346793	    -13.95278805	      2.69548199	     -8.65908731	      4.90291722	      3.37029257	     29.41188764	    -18.59101190	     -2.42607405	    103.17150629	     44.40484212	      0.00000000	      0.00000000	      0.72153975	     -8.87169040	     -4.52421486	     31.39996472	     45.43029124	      0.00000000	      0.00000000
     27.28400000	     -1.66908377	     -4.73834995	      4.49327910	      1.10743245	      0.92533187	      0.44631685	      2.92718517	     -2.79991981	    -13.13224172	     30.01859549	     30.01859549	     15.73670367	     -2.43299366	     -7.33694357	     23.23246008	     -6.30703830	     -1.05785830	     27.82526511	     27.82526511	      9.18479309	    -13.96731210	      2.65589835	     -8.49204356	      4.84827338	      3.43334981	     28.36868071	    -18.57950915	     -2.24758336	    101.55734115	     44.45303207	      0.00000000	      0.00000000	      1.67864721	     -9.02643162	     -4.20560115	     32.39959687	     45.40438914	      0.00000000	      0.00000000
     27.29800000	     -1.55733999	     -4.76614117	      4.12524133	      1.10782574	      0.92590448	      0.44288040	      4.06504120	     -3.32604327	    -12.34593730	     32.64203002	     32.64203002	     12.39135315	     -5.04759328	    -14.20305349	     22.64965080	     -6.27870868	     -1.46079774	     27.98491809	     27.98491809	      9.96057361	    -13.74562232	      3.04250938	     -8.47234675	      4.85306055	      2.68267266	     28.01524112	    -17.71125195	     -1.51895015	     98.44590128	     44.58020354	      0.00000000	      0.00000000	      1.39019971	     -9.97689955	     -1.51723220	     35.62879667	     45.09860104	      0.00000000	      0.00000000
     27.31200000	     -1.40090972	     -4.66007481	      3.71512582	      1.10805148	      0.92646421	      0.43948489	      5.59448737	     -4.16028588	    -11.74046566	     36.27979548	     36.27979548	     11.18795886	     -6.00736429	    -14.73440459	     21.92756332	     -6.12622366	     -1.99909396	     27.99064181	     27.99064181	     10.42830939	    -13.63986205	      2.78547338	     -8.61393320	      4.72765533	      2.80568346	     26.65273019	    -17.67519804	     -1.21983722	     97.31874638	     44.60532240	      0.00000000	      0.00000000	      2.69309642	    -10.10325430	     -1.41390765	     36.39360146	     45.11254195	      0.00000000	      0.00000000
     27.32600000	     -1.38881354	     -4.61585604	      3.30002980	      1.10804871	      0.92675726	      0.43634280	      7.44899242	     -4.84404745	    -10.97731826	     40.03004528	     40.03004528	      9.64188965	     -7.37489893	    -15.21658239	     21.36091665	     -6.04734851	     -2.54823975	     27.93855161	     27.93855161	     10.85871912	    -13.41596690	      2.46859284	     -8.58345856	      4.60913324	      2.89659109	     25.19482870	    -17.66964830	     -1.10339158	     95.70587871	     44.65208642	      0.00000000	      0.00000000	      3.85094062	    -10.30886318	     -1.21443737	     37.34535574	     45.11521531	      0.00000000	      0.00000000
     27.34000000	     -1.29275393	     -4.63644695	      2.93395557	      1.10792572	      0.92708403	      0.43348334	      9.23601482	     -5.30177364	    -10.12648072	     43.58776019	     43.58776019	      7.46997117	     -9.42000131	    -16.56868491	     20.76104281	     -6.09213156	     -3.18925889	     27.93241899	     27.93241899	     11.14151733	    -13.04125781	      1.61117122	     -8.60296243	      4.56361369	      2.51449809	     24.25733434	    -16.98679790	     -1.04467765	     92.62273789	     44.78387632	      0.00000000	      0.00000000	      4.22869969	    -11.28280574	      1.05657496	     40.05852314	     44.95923224	      0.00000000	      0.00000000
     27.35400000	     -1.19630585	     -4.59523191	      2.57022995	      1.10767931	      0.92742986	      0.43071541	     11.12679910	     -5.81656639	     -9.37149875	     47.22995502	     47.22995502	      5.90875184	    -10.74880508	    -15.96316099	     20.13267380	     -6.05710520	     -3.81981034	     27.87696640	     27.87696640	     11.56361454	    -12.61524219	      1.21784259	     -8.69402999	      4.44640963	      2.55577750	     22.61531680	    -16.88303983	     -1.00705097	     90.76875602	     44.84367396	      0.00000000	      0.00000000	      5.51755619	    -11.56841349	      1.32582055	     41.03003040	     44.97543368	      0.00000000	      0.00000000
     27.36800000	     -1.08212942	     -4.52145585	      2.23079727	      1.10732655	      0.92781037	      0.42812696	     13.04942352	     -6.33988270	     -8.74030275	     50.80771624	     50.80771624	      4.97899657	    -11.41705760	    -13.64427494	     19.46182737	     -6.02140857	     -4.57485478	     27.75107988	     27.75107988	     11.91776023	    -12.01104466	      0.60358865	     -8.79363512	      4.29436484	      2.17856233	     21.32327406	    -16.17377361	     -1.24252174	     88.09026466	     44.95087403	      0.00000000	      0.00000000	      6.42659318	    -12.29546570	      2.47950407	     42.50750508	     44.94495687	      0.00000000	      0.00000000
     27.38200000	     -0.99037100	     -4.46754194	      1.93979365	      1.10683808	      0.92822236	      0.42568090	     14.96728799	     -6.77370826	     -8.18570129	     54.10438896	     54.10438896	      4.50778851	    -11.75297993	    -10.31708923	     18.82598345	     -5.96366477	     -5.17742507	     27.60124761	     27.60124761	     12.25785036	    -11.53677903	      0.13506378	     -8.91896148	      4.15154535	      2.03948709	     19.72559632	    -15.96463465	     -1.11773275	     85.67246858	     45.04187296	      0.00000000	      0.00000000	      7.60228615	    -12.91253360	      3.60363542	     43.89955608	     44.98294464	      0.00000000	      0.00000000
     27.39600000	     -0.90768144	     -4.46624775	      1.66549295	      1.10629196	      0.92874424	      0.42346364	     16.75812379	     -7.06212440	     -7.71779734	     56.83923999	     56.83923999	      3.69707929	    -12.37380584	     -8.53176428	     18.18320963	     -6.01219434	     -5.90730746	     27.40803736	     27.40803736	     12.63764323	    -10.75768826	     -0.28288686	     -9.01960837	      4.06955136	      1.89869411	     18.09472585	    -15.58187838	     -1.37485184	     83.03161695	     45.13545011	      0.00000000	      0.00000000	      8.97658441	    -13.35299637	      3.92199054	     44.71683406	     45.02382025	      0.00000000	      0.00000000
     27.41000000	     -0.84391416	     -4.48162136	      1.39977256	      1.10565351	      0.92938307	      0.42140513	     18.48947326	     -7.29402200	     -7.36166329	     59.14637270	     59.14637270	      3.40526101	    -12.56658285	     -6.03383112	     17.53526175	     -6.05144896	     -6.57719433	     27.13316912	     27.13316912	     12.96733548	    -10.08266026	     -0.62724562	     -9.11514407	      4.00199552	      1.67027322	     16.54044756	    -15.20938918	     -1.54948866	     79.98253908	     45.23770050	      0.00000000	      0.00000000	     10.26316960	    -13.84431560	      4.48769791	     45.60469089	     45.04952592	      0.00000000	      0.00000000
     27.42400000	     -0.79308456	     -4.48942931	      1.14121565	      1.10502262	      0.93015153	      0.41946848	     20.06026419	     -7.47213667	     -7.06607372	     60.80869441	     60.80869441	      2.85426034	    -12.91352825	     -5.22968219	     16.84970445	     -6.03115698	     -7.09468117	     26.75707427	     26.75707427	     13.25548528	     -9.61462707	     -0.79158702	     -9.23797435	      3.92884238	      1.70241660	     14.50991442	    -15.31825250	     -1.38201531	     77.76744474	     45.29629358	      0.00000000	      0.00000000	     11.69116232	    -14.04762430	      4.53215737	     46.44850134	     45.08554827	      0.00000000	      0.00000000
     27.43800000	     -0.72554951	     -4.58966735	      0.92867215	      1.10434033	      0.93107581	      0.41777816	     21.53943877	     -7.50579142	     -6.90181437	     62.08865045	     62.08865045	      3.48607395	    -12.48690423	     -1.83136474	     16.15212234	     -6.14514956	     -7.66122431	     26.36947481	     26.36947481	     13.53685964	     -8.91802360	     -1.08285536	     -9.32146098	      3.94635098	      1.25238968	     13.27780282	    -14.78606304	     -1.33623917	     73.69308327	     45.41374343	      0.00000000	      0.00000000	     12.77813274	    -14.78388166	      5.49496399	     47.45011138	     45.15107537	      0.00000000	      0.00000000
